<svg xmlns="http://www.w3.org/2000/svg" viewBox="0 0 990 430" width="990" height="430" role="img" aria-label="daily_sales 6행이 store 값에 따라 강변점·공원점·본점 세 묶음으로 나뉘고(split), 묶음마다 revenue 합계를 구한 뒤(apply), 지점을 인덱스로 하는 3행 Series로 합쳐지는(combine) groupby 과정">
<title>daily_sales 6행이 store 값에 따라 강변점·공원점·본점 세 묶음으로 나뉘고(split), 묶음마다 revenue 합계를 구한 뒤(apply), 지점을 인덱스로 하는 3행 Series로 합쳐지는(combine) groupby 과정</title>
<rect width="990" height="430" rx="12" fill="#ffffff"/>
<text x="30" y="30" font-family="'D2Coding', Consolas, 'SFMono-Regular', Menlo, monospace" font-size="13" font-weight="400" fill="#616e7c" text-anchor="start">ds.groupby(&quot;store&quot;)[&quot;revenue&quot;].sum()</text>
<text x="156" y="70" font-family="Pretendard, 'Noto Sans KR', 'Malgun Gothic', 'Apple SD Gothic Neo', sans-serif" font-size="14" font-weight="700" fill="#1f2933" text-anchor="middle">daily_sales (6행)</text>
<text x="438" y="70" font-family="Pretendard, 'Noto Sans KR', 'Malgun Gothic', 'Apple SD Gothic Neo', sans-serif" font-size="14" font-weight="700" fill="#1f2933" text-anchor="middle">① 나누기</text>
<text x="438" y="87" font-family="'D2Coding', Consolas, 'SFMono-Regular', Menlo, monospace" font-size="12" font-weight="400" fill="#616e7c" text-anchor="middle">split</text>
<text x="640" y="70" font-family="Pretendard, 'Noto Sans KR', 'Malgun Gothic', 'Apple SD Gothic Neo', sans-serif" font-size="14" font-weight="700" fill="#1f2933" text-anchor="middle">② 적용</text>
<text x="640" y="87" font-family="'D2Coding', Consolas, 'SFMono-Regular', Menlo, monospace" font-size="12" font-weight="400" fill="#616e7c" text-anchor="middle">apply: sum()</text>
<text x="868" y="70" font-family="Pretendard, 'Noto Sans KR', 'Malgun Gothic', 'Apple SD Gothic Neo', sans-serif" font-size="14" font-weight="700" fill="#1f2933" text-anchor="middle">③ 합치기</text>
<text x="868" y="87" font-family="'D2Coding', Consolas, 'SFMono-Regular', Menlo, monospace" font-size="12" font-weight="400" fill="#616e7c" text-anchor="middle">combine</text>
<rect x="30" y="144.0" width="96" height="26" rx="0" fill="#2f5d8a"/>
<text x="78.0" y="161.5" font-family="'D2Coding', Consolas, 'SFMono-Regular', Menlo, monospace" font-size="12" font-weight="700" fill="#ffffff" text-anchor="middle">date</text>
<rect x="126" y="144.0" width="70" height="26" rx="0" fill="#2f5d8a"/>
<text x="161.0" y="161.5" font-family="'D2Coding', Consolas, 'SFMono-Regular', Menlo, monospace" font-size="12" font-weight="700" fill="#ffffff" text-anchor="middle">store</text>
<rect x="196" y="144.0" width="86" height="26" rx="0" fill="#2f5d8a"/>
<text x="239.0" y="161.5" font-family="'D2Coding', Consolas, 'SFMono-Regular', Menlo, monospace" font-size="12" font-weight="700" fill="#ffffff" text-anchor="middle">revenue</text>
<rect x="30" y="170.0" width="252" height="26" rx="0" fill="#e8f0f8"/>
<text x="78.0" y="187.5" font-family="'D2Coding', Consolas, 'SFMono-Regular', Menlo, monospace" font-size="12.5" font-weight="400" fill="#1f2933" text-anchor="middle">2026-08-01</text>
<text x="161.0" y="187.5" font-family="Pretendard, 'Noto Sans KR', 'Malgun Gothic', 'Apple SD Gothic Neo', sans-serif" font-size="12.5" font-weight="400" fill="#1f2933" text-anchor="middle">본점</text>
<text x="239.0" y="187.5" font-family="'D2Coding', Consolas, 'SFMono-Regular', Menlo, monospace" font-size="12.5" font-weight="400" fill="#1f2933" text-anchor="middle">391,700</text>
<rect x="30" y="196.0" width="252" height="26" rx="0" fill="#fbefd9"/>
<text x="78.0" y="213.5" font-family="'D2Coding', Consolas, 'SFMono-Regular', Menlo, monospace" font-size="12.5" font-weight="400" fill="#1f2933" text-anchor="middle">2026-08-01</text>
<text x="161.0" y="213.5" font-family="Pretendard, 'Noto Sans KR', 'Malgun Gothic', 'Apple SD Gothic Neo', sans-serif" font-size="12.5" font-weight="400" fill="#1f2933" text-anchor="middle">강변점</text>
<text x="239.0" y="213.5" font-family="'D2Coding', Consolas, 'SFMono-Regular', Menlo, monospace" font-size="12.5" font-weight="400" fill="#1f2933" text-anchor="middle">350,700</text>
<rect x="30" y="222.0" width="252" height="26" rx="0" fill="#e3f3ea"/>
<text x="78.0" y="239.5" font-family="'D2Coding', Consolas, 'SFMono-Regular', Menlo, monospace" font-size="12.5" font-weight="400" fill="#1f2933" text-anchor="middle">2026-08-01</text>
<text x="161.0" y="239.5" font-family="Pretendard, 'Noto Sans KR', 'Malgun Gothic', 'Apple SD Gothic Neo', sans-serif" font-size="12.5" font-weight="400" fill="#1f2933" text-anchor="middle">공원점</text>
<text x="239.0" y="239.5" font-family="'D2Coding', Consolas, 'SFMono-Regular', Menlo, monospace" font-size="12.5" font-weight="400" fill="#1f2933" text-anchor="middle">575,500</text>
<rect x="30" y="248.0" width="252" height="26" rx="0" fill="#e8f0f8"/>
<text x="78.0" y="265.5" font-family="'D2Coding', Consolas, 'SFMono-Regular', Menlo, monospace" font-size="12.5" font-weight="400" fill="#1f2933" text-anchor="middle">2026-08-02</text>
<text x="161.0" y="265.5" font-family="Pretendard, 'Noto Sans KR', 'Malgun Gothic', 'Apple SD Gothic Neo', sans-serif" font-size="12.5" font-weight="400" fill="#1f2933" text-anchor="middle">본점</text>
<text x="239.0" y="265.5" font-family="'D2Coding', Consolas, 'SFMono-Regular', Menlo, monospace" font-size="12.5" font-weight="400" fill="#1f2933" text-anchor="middle">421,600</text>
<rect x="30" y="274.0" width="252" height="26" rx="0" fill="#fbefd9"/>
<text x="78.0" y="291.5" font-family="'D2Coding', Consolas, 'SFMono-Regular', Menlo, monospace" font-size="12.5" font-weight="400" fill="#1f2933" text-anchor="middle">2026-08-02</text>
<text x="161.0" y="291.5" font-family="Pretendard, 'Noto Sans KR', 'Malgun Gothic', 'Apple SD Gothic Neo', sans-serif" font-size="12.5" font-weight="400" fill="#1f2933" text-anchor="middle">강변점</text>
<text x="239.0" y="291.5" font-family="'D2Coding', Consolas, 'SFMono-Regular', Menlo, monospace" font-size="12.5" font-weight="400" fill="#1f2933" text-anchor="middle">414,700</text>
<rect x="30" y="300.0" width="252" height="26" rx="0" fill="#e3f3ea"/>
<text x="78.0" y="317.5" font-family="'D2Coding', Consolas, 'SFMono-Regular', Menlo, monospace" font-size="12.5" font-weight="400" fill="#1f2933" text-anchor="middle">2026-08-02</text>
<text x="161.0" y="317.5" font-family="Pretendard, 'Noto Sans KR', 'Malgun Gothic', 'Apple SD Gothic Neo', sans-serif" font-size="12.5" font-weight="400" fill="#1f2933" text-anchor="middle">공원점</text>
<text x="239.0" y="317.5" font-family="'D2Coding', Consolas, 'SFMono-Regular', Menlo, monospace" font-size="12.5" font-weight="400" fill="#1f2933" text-anchor="middle">595,000</text>
<rect x="30" y="144.0" width="252" height="182" rx="0" fill="none" stroke="#9aa5b1" stroke-width="1"/>
<rect x="790" y="183.0" width="70" height="26" rx="0" fill="#eef1f4"/>
<text x="825.0" y="200.5" font-family="'D2Coding', Consolas, 'SFMono-Regular', Menlo, monospace" font-size="12" font-weight="700" fill="#1f2933" text-anchor="middle">store</text>
<rect x="860" y="183.0" width="96" height="26" rx="0" fill="#2f5d8a"/>
<text x="908.0" y="200.5" font-family="'D2Coding', Consolas, 'SFMono-Regular', Menlo, monospace" font-size="12" font-weight="700" fill="#ffffff" text-anchor="middle">revenue</text>
<rect x="790" y="209.0" width="166" height="26" rx="0" fill="#ffffff"/>
<rect x="790" y="209.0" width="70" height="26" rx="0" fill="#fbefd9"/>
<text x="825.0" y="226.5" font-family="Pretendard, 'Noto Sans KR', 'Malgun Gothic', 'Apple SD Gothic Neo', sans-serif" font-size="12.5" font-weight="700" fill="#b7791f" text-anchor="middle">강변점</text>
<text x="908.0" y="226.5" font-family="'D2Coding', Consolas, 'SFMono-Regular', Menlo, monospace" font-size="12.5" font-weight="700" fill="#1f2933" text-anchor="middle">765,400</text>
<rect x="790" y="235.0" width="166" height="26" rx="0" fill="#ffffff"/>
<rect x="790" y="235.0" width="70" height="26" rx="0" fill="#e3f3ea"/>
<text x="825.0" y="252.5" font-family="Pretendard, 'Noto Sans KR', 'Malgun Gothic', 'Apple SD Gothic Neo', sans-serif" font-size="12.5" font-weight="700" fill="#2f855a" text-anchor="middle">공원점</text>
<text x="908.0" y="252.5" font-family="'D2Coding', Consolas, 'SFMono-Regular', Menlo, monospace" font-size="12.5" font-weight="700" fill="#1f2933" text-anchor="middle">1,170,500</text>
<rect x="790" y="261.0" width="166" height="26" rx="0" fill="#ffffff"/>
<rect x="790" y="261.0" width="70" height="26" rx="0" fill="#e8f0f8"/>
<text x="825.0" y="278.5" font-family="Pretendard, 'Noto Sans KR', 'Malgun Gothic', 'Apple SD Gothic Neo', sans-serif" font-size="12.5" font-weight="700" fill="#2f5d8a" text-anchor="middle">본점</text>
<text x="908.0" y="278.5" font-family="'D2Coding', Consolas, 'SFMono-Regular', Menlo, monospace" font-size="12.5" font-weight="700" fill="#1f2933" text-anchor="middle">813,300</text>
<rect x="790" y="183.0" width="166" height="104" rx="0" fill="none" stroke="#9aa5b1" stroke-width="1"/>
<rect x="360" y="92" width="70" height="26" rx="0" fill="#2f5d8a"/>
<text x="395.0" y="109.5" font-family="'D2Coding', Consolas, 'SFMono-Regular', Menlo, monospace" font-size="12" font-weight="700" fill="#ffffff" text-anchor="middle">store</text>
<rect x="430" y="92" width="86" height="26" rx="0" fill="#2f5d8a"/>
<text x="473.0" y="109.5" font-family="'D2Coding', Consolas, 'SFMono-Regular', Menlo, monospace" font-size="12" font-weight="700" fill="#ffffff" text-anchor="middle">revenue</text>
<rect x="360" y="118" width="156" height="26" rx="0" fill="#fbefd9"/>
<text x="395.0" y="135.5" font-family="Pretendard, 'Noto Sans KR', 'Malgun Gothic', 'Apple SD Gothic Neo', sans-serif" font-size="12.5" font-weight="400" fill="#1f2933" text-anchor="middle">강변점</text>
<text x="473.0" y="135.5" font-family="'D2Coding', Consolas, 'SFMono-Regular', Menlo, monospace" font-size="12.5" font-weight="400" fill="#1f2933" text-anchor="middle">350,700</text>
<rect x="360" y="144" width="156" height="26" rx="0" fill="#fbefd9"/>
<text x="395.0" y="161.5" font-family="Pretendard, 'Noto Sans KR', 'Malgun Gothic', 'Apple SD Gothic Neo', sans-serif" font-size="12.5" font-weight="400" fill="#1f2933" text-anchor="middle">강변점</text>
<text x="473.0" y="161.5" font-family="'D2Coding', Consolas, 'SFMono-Regular', Menlo, monospace" font-size="12.5" font-weight="400" fill="#1f2933" text-anchor="middle">414,700</text>
<rect x="360" y="92" width="156" height="78" rx="0" fill="none" stroke="#9aa5b1" stroke-width="1"/>
<rect x="360" y="92" width="156" height="78" rx="0" fill="none" stroke="#b7791f" stroke-width="1.6"/>
<path d="M284,209.0 C318,209.0 326,131 354,131" stroke="#b7791f" stroke-width="1.3" fill="none"/>
<path d="M284,287.0 C318,287.0 326,157 354,157" stroke="#b7791f" stroke-width="1.3" fill="none"/>
<line x1="522" y1="144" x2="579.6" y2="144.0" stroke="#b7791f" stroke-width="1.6"/>
<path d="M586.0,144.0 L578.0,148.0 L578.0,140.0 z" fill="#b7791f"/>
<rect x="590" y="128" width="100" height="32" rx="6" fill="#fbefd9" stroke="#b7791f" stroke-width="1.4"/>
<text x="640" y="149" font-family="'D2Coding', Consolas, 'SFMono-Regular', Menlo, monospace" font-size="13" font-weight="700" fill="#1f2933" text-anchor="middle">765,400</text>
<line x1="694" y1="144" x2="779.1635898701452" y2="217.8084445541258" stroke="#b7791f" stroke-width="1.4"/>
<path d="M784.0,222.0 L775.3,219.8 L780.6,213.7 z" fill="#b7791f"/>
<rect x="360" y="196" width="70" height="26" rx="0" fill="#2f5d8a"/>
<text x="395.0" y="213.5" font-family="'D2Coding', Consolas, 'SFMono-Regular', Menlo, monospace" font-size="12" font-weight="700" fill="#ffffff" text-anchor="middle">store</text>
<rect x="430" y="196" width="86" height="26" rx="0" fill="#2f5d8a"/>
<text x="473.0" y="213.5" font-family="'D2Coding', Consolas, 'SFMono-Regular', Menlo, monospace" font-size="12" font-weight="700" fill="#ffffff" text-anchor="middle">revenue</text>
<rect x="360" y="222" width="156" height="26" rx="0" fill="#e3f3ea"/>
<text x="395.0" y="239.5" font-family="Pretendard, 'Noto Sans KR', 'Malgun Gothic', 'Apple SD Gothic Neo', sans-serif" font-size="12.5" font-weight="400" fill="#1f2933" text-anchor="middle">공원점</text>
<text x="473.0" y="239.5" font-family="'D2Coding', Consolas, 'SFMono-Regular', Menlo, monospace" font-size="12.5" font-weight="400" fill="#1f2933" text-anchor="middle">575,500</text>
<rect x="360" y="248" width="156" height="26" rx="0" fill="#e3f3ea"/>
<text x="395.0" y="265.5" font-family="Pretendard, 'Noto Sans KR', 'Malgun Gothic', 'Apple SD Gothic Neo', sans-serif" font-size="12.5" font-weight="400" fill="#1f2933" text-anchor="middle">공원점</text>
<text x="473.0" y="265.5" font-family="'D2Coding', Consolas, 'SFMono-Regular', Menlo, monospace" font-size="12.5" font-weight="400" fill="#1f2933" text-anchor="middle">595,000</text>
<rect x="360" y="196" width="156" height="78" rx="0" fill="none" stroke="#9aa5b1" stroke-width="1"/>
<rect x="360" y="196" width="156" height="78" rx="0" fill="none" stroke="#2f855a" stroke-width="1.6"/>
<path d="M284,235.0 C318,235.0 326,235 354,235" stroke="#2f855a" stroke-width="1.3" fill="none"/>
<path d="M284,313.0 C318,313.0 326,261 354,261" stroke="#2f855a" stroke-width="1.3" fill="none"/>
<line x1="522" y1="248" x2="579.6" y2="248.0" stroke="#2f855a" stroke-width="1.6"/>
<path d="M586.0,248.0 L578.0,252.0 L578.0,244.0 z" fill="#2f855a"/>
<rect x="590" y="232" width="100" height="32" rx="6" fill="#e3f3ea" stroke="#2f855a" stroke-width="1.4"/>
<text x="640" y="253" font-family="'D2Coding', Consolas, 'SFMono-Regular', Menlo, monospace" font-size="13" font-weight="700" fill="#1f2933" text-anchor="middle">1,170,500</text>
<line x1="694" y1="248" x2="777.6" y2="248.0" stroke="#2f855a" stroke-width="1.4"/>
<path d="M784.0,248.0 L776.0,252.0 L776.0,244.0 z" fill="#2f855a"/>
<rect x="360" y="300" width="70" height="26" rx="0" fill="#2f5d8a"/>
<text x="395.0" y="317.5" font-family="'D2Coding', Consolas, 'SFMono-Regular', Menlo, monospace" font-size="12" font-weight="700" fill="#ffffff" text-anchor="middle">store</text>
<rect x="430" y="300" width="86" height="26" rx="0" fill="#2f5d8a"/>
<text x="473.0" y="317.5" font-family="'D2Coding', Consolas, 'SFMono-Regular', Menlo, monospace" font-size="12" font-weight="700" fill="#ffffff" text-anchor="middle">revenue</text>
<rect x="360" y="326" width="156" height="26" rx="0" fill="#e8f0f8"/>
<text x="395.0" y="343.5" font-family="Pretendard, 'Noto Sans KR', 'Malgun Gothic', 'Apple SD Gothic Neo', sans-serif" font-size="12.5" font-weight="400" fill="#1f2933" text-anchor="middle">본점</text>
<text x="473.0" y="343.5" font-family="'D2Coding', Consolas, 'SFMono-Regular', Menlo, monospace" font-size="12.5" font-weight="400" fill="#1f2933" text-anchor="middle">391,700</text>
<rect x="360" y="352" width="156" height="26" rx="0" fill="#e8f0f8"/>
<text x="395.0" y="369.5" font-family="Pretendard, 'Noto Sans KR', 'Malgun Gothic', 'Apple SD Gothic Neo', sans-serif" font-size="12.5" font-weight="400" fill="#1f2933" text-anchor="middle">본점</text>
<text x="473.0" y="369.5" font-family="'D2Coding', Consolas, 'SFMono-Regular', Menlo, monospace" font-size="12.5" font-weight="400" fill="#1f2933" text-anchor="middle">421,600</text>
<rect x="360" y="300" width="156" height="78" rx="0" fill="none" stroke="#9aa5b1" stroke-width="1"/>
<rect x="360" y="300" width="156" height="78" rx="0" fill="none" stroke="#2f5d8a" stroke-width="1.6"/>
<path d="M284,183.0 C318,183.0 326,339 354,339" stroke="#2f5d8a" stroke-width="1.3" fill="none"/>
<path d="M284,261.0 C318,261.0 326,365 354,365" stroke="#2f5d8a" stroke-width="1.3" fill="none"/>
<line x1="522" y1="352" x2="579.6" y2="352.0" stroke="#2f5d8a" stroke-width="1.6"/>
<path d="M586.0,352.0 L578.0,356.0 L578.0,348.0 z" fill="#2f5d8a"/>
<rect x="590" y="336" width="100" height="32" rx="6" fill="#e8f0f8" stroke="#2f5d8a" stroke-width="1.4"/>
<text x="640" y="357" font-family="'D2Coding', Consolas, 'SFMono-Regular', Menlo, monospace" font-size="13" font-weight="700" fill="#1f2933" text-anchor="middle">813,300</text>
<line x1="694" y1="352" x2="779.1635898701452" y2="278.1915554458742" stroke="#2f5d8a" stroke-width="1.4"/>
<path d="M784.0,274.0 L780.6,282.3 L775.3,276.2 z" fill="#2f5d8a"/>
<text x="30" y="405" font-family="Pretendard, 'Noto Sans KR', 'Malgun Gothic', 'Apple SD Gothic Neo', sans-serif" font-size="13" font-weight="400" fill="#616e7c" text-anchor="start">같은 store 값끼리 나누고, 묶음마다 합을 구해, 묶음 이름을 인덱스로 하는 Series로 합친다. (첫 6행만 그림)</text>
</svg>
